# xmcd
#
# Track frame offsets: 
#        150
#        12851
#        36629
#        52657
#        71044
#        83592
#        107896
#        123656
#        143875
#        160736
#        180846
#        199966
#
# Disc length: 2966 seconds
#
# Revision: 3
# Processed by: cddbd v1.5.2PL0 Copyright (c) Steve Scherf et al.
# Submitted via: ExactAudioCopy v0.99pb4
#
DISCID=9f0b940c
DTITLE=Buddy Guy - Blues Singer
DYEAR=2003
DGENRE=Blues
TTITLE0=Hard Time Killing Floor
TTITLE1=Crawlin' Kingsnake
TTITLE2=Lucy Mae Blues
TTITLE3=Can't See Baby
TTITLE4=I Love The Life I Live
TTITLE5=Louise McGhee
TTITLE6=Moanin' and Groanin'
TTITLE7=Black Cat Blues
TTITLE8=Bad Life Blues
TTITLE9=Sally Mae
TTITLE10=Anna Lee
TTITLE11=Lonesome Home Blues
EXTD=YEAR: 2003 ID3G: 0
EXTT0=
EXTT1=
EXTT2=
EXTT3=
EXTT4=
EXTT5=
EXTT6=
EXTT7=
EXTT8=
EXTT9=
EXTT10=
EXTT11=
PLAYORDER=
